<svg width="76" height="76" viewBox="0 0 76 76" fill="none" xmlns="http://www.w3.org/2000/svg">
<path d="M72.0761 45.8589C72.0761 45.8589 57.5214 43.3476 46.8703 52.1367C44.68 53.9437 43.2117 56.6085 42.2214 59.4398L41.8054 49.1109C50.6132 48.1511 57.5214 38.932 57.5214 27.6855C57.5214 15.7992 48.1546 6.16284 48.1546 6.16284C48.1546 6.16284 48.4663 16.473 36.1605 24.0796C25.2421 30.8308 26.2933 39.4863 30.9878 44.6753C25.3933 39.6925 23.2792 30.2273 35.0273 22.964C36.332 22.1609 37.5763 21.2636 38.7503 20.2792C31.5222 13.4425 31.7425 6.16284 31.7425 6.16284C31.7425 6.16284 22.3734 15.8003 22.3734 27.6855C22.3734 38.932 29.2816 48.1499 38.087 49.1109L37.4906 63.9175C35.9355 59.1082 33.4968 53.5265 29.8886 49.971C22.4718 42.6632 4.10736 38.0917 4.10736 38.0917C4.10736 38.0917 25.63 52.9746 34.4097 73.248H42.7769L42.7722 73.1484C49.3687 53.3695 72.0761 45.8589 72.0761 45.8589Z" fill="#D97CA7" fill-opacity="0.2"/>
<path d="M45.8109 10.7156C42.7804 6.09955 39.9456 2.93549 39.9456 2.93549C39.9456 2.93549 37.112 6.09838 34.0816 10.7132C35.0507 13.221 36.8003 16.2644 39.948 19.2245C43.0968 16.2644 44.8429 13.221 45.8109 10.7156Z" fill="#D97CA7" fill-opacity="0.2"/>
</svg>
