<svg width="76" height="69" viewBox="0 0 76 69" fill="none" xmlns="http://www.w3.org/2000/svg">
<path d="M11.0111 58.2185C9.62284 58.9267 3.45768 61.7349 3.45768 61.7349C3.45768 61.7349 5.65255 61.393 7.55735 61.5395C9.4298 61.6861 9.17154 63.5173 9.17154 63.5173C7.07319 62.7113 2.5864 62.98 1.35984 63.1021C0.165621 63.2242 -0.383227 62.5648 0.29449 61.9298C0.972206 61.3192 9.55866 58.0958 8.1062 58.1935C6.65373 58.2668 4.10356 57.9737 4.10356 57.9737C3.81297 60.5132 0.7463 59.3414 0.7463 59.3414C2.68293 58.7308 1.32749 56.4111 1.32749 56.4111C5.13657 57.3636 8.88095 56.5088 9.6557 56.5088C10.4305 56.5088 12.0118 57.6817 11.0111 58.2185Z" fill="white"/>
<path d="M21.986 60.8072C20.7594 63.4932 17.4669 63.4932 17.4669 63.4932C16.2727 63.4932 15.9174 62.7117 16.0468 62.3698C15.2397 62.7117 14.2066 62.9803 13.1418 62.9803C10.5593 62.9803 10.2369 60.1233 12.0765 58.2432C14.0131 56.2655 16.8862 56.412 18.4034 56.9C19.0169 56.0696 20.8241 56.4359 21.793 56.7046C21.793 56.7046 18.1133 60.5874 18.1774 61.808C18.2421 62.9804 20.1788 61.5882 20.6953 60.8311C21.0172 60.3431 21.986 60.8072 21.986 60.8072ZM15.885 61.344C15.885 60.2205 17.0151 58.8045 17.7251 57.7787C15.885 57.4856 14.6261 58.0962 13.7548 59.0487C13.3354 59.5372 12.883 60.5869 13.4642 61.4173C13.722 61.7836 14.755 61.808 15.885 61.344Z" fill="white"/>
<path d="M31.5403 57.4128C30.2814 58.4141 29.9585 59.8302 29.9585 59.8302C29.4096 60.0255 27.2794 60.05 26.9565 59.244C26.7953 58.7311 27.2794 58.1694 27.2794 58.1694C27.2794 58.1694 25.3428 59.415 24.5034 59.0242C23.3415 60.2942 22.4374 61.5393 22.5991 62.9803C22.5344 62.9803 22.502 62.9803 22.502 62.9803C20.5331 62.9803 20.5007 61.7347 20.7913 60.8559C21.2755 59.3173 23.4062 56.7045 23.4062 56.7045C24.3421 56.045 26.5375 56.2404 26.5375 56.2404C26.5375 56.2404 26.0857 57.1685 25.3757 57.9007C26.2151 57.9984 27.5705 57.4367 28.6359 56.7772C30.0878 55.8985 32.0892 56.9487 31.5403 57.4128Z" fill="white"/>
<path d="M41.6758 60.3921C40.4492 63.0781 37.1566 63.0781 37.1566 63.0781C35.9947 63.0781 35.5748 62.6629 35.4459 62.1256C34.0576 63.0781 32.3792 63.0781 32.3792 63.0781C30.4103 63.0781 30.6038 61.857 30.6685 60.9538C30.7655 60.0746 33.2834 56.8024 33.2834 56.8024C34.2517 56.1429 36.5436 56.8024 36.5436 56.8024C36.5436 56.8024 33.0251 60.1723 33.0898 61.3934C33.1545 62.5658 35.0911 61.1736 35.6076 60.4165C35.64 60.3677 35.6723 60.3432 35.7047 60.3188C36.35 59.0244 38.0613 56.8024 38.0613 56.8024C39.0296 56.1429 41.3215 56.8024 41.3215 56.8024C41.3215 56.8024 37.803 60.1723 37.8677 61.3934C37.9324 62.5658 39.869 61.1736 40.3855 60.4165C40.7074 59.928 41.6758 60.3921 41.6758 60.3921Z" fill="white"/>
<path d="M49.0675 61.2952C47.2597 63.1509 44.3548 63.1753 42.7729 62.7845C42.2241 62.9555 41.6434 63.0532 41.1587 62.9555C39.2545 62.638 39.9969 60.2206 42.3853 57.4368C44.7743 54.6775 44.4837 52.6509 44.4837 52.6509C48.7769 52.773 47.6792 54.5798 45.6779 56.9C46.2914 56.7046 46.9691 56.5825 47.7115 56.5825C50.2622 56.5825 50.9076 59.4395 49.0675 61.2952ZM47.8409 57.9014C47.3891 57.3152 45.549 57.706 44.3224 58.4387C43.9672 58.8539 43.5477 59.3912 43.2894 59.7331C43.6124 59.6599 43.903 59.7576 43.9348 59.782C43.9995 59.8064 43.386 60.2705 43.1924 60.6856C43.0954 60.9055 42.9018 61.7847 44.1284 61.8335C45.7102 61.9312 46.5173 61.0276 47.2597 60.2465C47.7121 59.7571 48.2927 58.5115 47.8409 57.9014Z" fill="white"/>
<path d="M56.5886 60.0991C55.6849 62.8584 52.3924 63.0783 52.3924 63.0783C50.8105 63.1759 50.294 62.1257 50.3587 61.0761C50.4234 60.1724 52.5859 56.7536 52.5859 56.7536C53.4254 56.0209 55.8138 56.5338 55.8138 56.5338C55.8138 56.5338 52.7148 60.1235 52.9089 61.3442C53.1024 62.4921 54.8455 61.0023 55.2978 60.1963C55.5556 59.7083 56.5886 60.0991 56.5886 60.0991ZM53.296 54.7026C53.296 54.092 53.9737 53.5791 54.7808 53.5791C55.6203 53.5791 56.298 54.092 56.298 54.7026C56.298 55.3376 55.6203 55.8505 54.7808 55.8505C53.9742 55.85 53.296 55.3371 53.296 54.7026Z" fill="white"/>
<path d="M66.2727 60.2944C65.0462 62.9805 61.7536 62.9805 61.7536 62.9805C58.2998 62.9316 60.7206 59.3908 61.5277 58.2434C60.0752 59.0493 56.9439 62.7851 56.7827 62.9805C56.718 62.9805 56.6856 62.9805 56.6856 62.9805C54.7167 62.9805 54.6843 61.7349 54.9749 60.8562C55.4591 59.3175 57.5898 56.7047 57.5898 56.7047C58.5257 56.0453 60.85 56.7047 60.85 56.7047C60.85 56.7047 59.3652 57.9259 58.171 59.464C62.4318 56.9245 62.0124 55.9476 65.918 56.7047C65.918 56.7047 62.3995 60.0746 62.4642 61.2953C62.5289 62.4676 64.4332 61.0755 64.9497 60.3183C65.2716 59.8304 66.2727 60.2944 66.2727 60.2944Z" fill="white"/>
<path d="M75.8917 60.8072C74.6651 63.4932 71.3726 63.4932 71.3726 63.4932C70.1784 63.4932 69.8231 62.7117 69.9524 62.3698C69.1454 62.7117 68.1123 62.9803 67.0475 62.9803C64.465 62.9803 64.1426 60.1233 65.9822 58.2432C67.9188 56.2655 70.7919 56.412 72.3091 56.9C72.9226 56.0696 74.7298 56.4359 75.6987 56.7046C75.6987 56.7046 72.019 60.5874 72.0831 61.808C72.1478 62.9804 74.0845 61.5882 74.601 60.8311C74.9234 60.3431 75.8917 60.8072 75.8917 60.8072ZM69.7907 61.344C69.7907 60.2205 70.9208 58.8045 71.6308 57.7787C69.7907 57.4856 68.5318 58.0962 67.6605 59.0487C67.2411 59.5372 66.7887 60.5869 67.3699 61.4173C67.6277 61.7836 68.6607 61.808 69.7907 61.344Z" fill="white"/>
<path d="M40.7105 67.6706C40.7105 67.7317 40.692 67.7963 40.6555 67.8655C40.6191 67.9347 40.5631 68.0004 40.4876 68.0629C40.4122 68.1255 40.3177 68.1759 40.2032 68.2141C40.0887 68.2522 39.9604 68.2711 39.8171 68.2711C39.5127 68.2711 39.2749 68.183 39.104 68.007C38.933 67.8309 38.8478 67.5953 38.8478 67.2997C38.8478 67.0992 38.8868 66.9222 38.9653 66.7685C39.0439 66.6149 39.1569 66.4958 39.3047 66.4118C39.4526 66.3279 39.6297 66.2856 39.8356 66.2856C39.9629 66.2856 40.08 66.304 40.1868 66.3411C40.2936 66.3782 40.3834 66.4256 40.4574 66.4841C40.5313 66.5426 40.5878 66.6047 40.6268 66.6708C40.6658 66.737 40.6853 66.7985 40.6853 66.856C40.6853 66.9145 40.6632 66.9639 40.6196 67.0046C40.576 67.0453 40.5226 67.0657 40.4599 67.0657C40.4188 67.0657 40.385 67.055 40.3577 67.0341C40.3305 67.0133 40.3002 66.9797 40.2664 66.9329C40.2063 66.8423 40.1431 66.7741 40.0779 66.7288C40.0127 66.6835 39.929 66.6606 39.8279 66.6606C39.6821 66.6606 39.565 66.7171 39.4757 66.8296C39.3864 66.942 39.3422 67.0962 39.3422 67.2921C39.3422 67.3837 39.3535 67.4681 39.3766 67.545C39.3997 67.6218 39.4326 67.6874 39.4757 67.7419C39.5188 67.7963 39.5712 67.8375 39.6328 67.8655C39.6944 67.8935 39.7617 67.9078 39.8351 67.9078C39.9337 67.9078 40.0184 67.8849 40.0887 67.8396C40.1591 67.7943 40.2212 67.7251 40.2756 67.632C40.3059 67.577 40.3382 67.5343 40.3732 67.5032C40.4081 67.4722 40.4507 67.4569 40.5015 67.4569C40.5616 67.4569 40.6114 67.4798 40.6514 67.5251C40.6915 67.5704 40.7105 67.6193 40.7105 67.6706Z" fill="white"/>
<path d="M42.9844 67.2823C42.9844 67.4278 42.9613 67.5622 42.9156 67.6848C42.8699 67.8074 42.8037 67.9132 42.7169 68.0013C42.6302 68.0893 42.527 68.157 42.4063 68.2043C42.2856 68.2516 42.1506 68.275 42.0002 68.275C41.8508 68.275 41.7168 68.2511 41.5977 68.2033C41.4785 68.1554 41.3754 68.0872 41.2881 67.9982C41.2008 67.9092 41.1346 67.8043 41.0894 67.6833C41.0442 67.5622 41.0216 67.4283 41.0216 67.2818C41.0216 67.1337 41.0447 66.9984 41.0904 66.8758C41.1361 66.7531 41.2018 66.6478 41.287 66.5608C41.3723 66.4738 41.476 66.4066 41.5977 66.3593C41.7193 66.312 41.8533 66.2886 42.0002 66.2886C42.1496 66.2886 42.2846 66.3125 42.4063 66.3603C42.528 66.4081 42.6317 66.4758 42.7185 66.5644C42.8052 66.6529 42.871 66.7577 42.9161 66.8793C42.9613 67.0009 42.9844 67.1358 42.9844 67.2823ZM42.49 67.2823C42.49 67.0834 42.4458 66.9282 42.3575 66.8172C42.2692 66.7063 42.1501 66.6509 42.0012 66.6509C41.9047 66.6509 41.82 66.6758 41.7466 66.7251C41.6731 66.7745 41.6167 66.8478 41.5771 66.9444C41.5376 67.0411 41.5176 67.1536 41.5176 67.2823C41.5176 67.41 41.5371 67.5214 41.5761 67.6166C41.6151 67.7117 41.6711 67.785 41.744 67.8359C41.8169 67.8868 41.9026 67.9117 42.0012 67.9117C42.1506 67.9117 42.2692 67.8557 42.3575 67.7443C42.4458 67.6329 42.49 67.4792 42.49 67.2823Z" fill="white"/>
<path d="M43.8203 66.5597V66.6187C43.907 66.5053 44.0015 66.4223 44.1047 66.3694C44.2079 66.3165 44.326 66.29 44.4595 66.29C44.5894 66.29 44.7054 66.318 44.8081 66.374C44.9108 66.43 44.9868 66.5093 45.0371 66.6121C45.0694 66.6717 45.0905 66.7363 45.1002 66.8055C45.11 66.8747 45.1146 66.9627 45.1146 67.0701V67.9788C45.1146 68.0765 45.092 68.1508 45.0468 68.2007C45.0016 68.2505 44.9431 68.276 44.8707 68.276C44.7973 68.276 44.7377 68.2505 44.692 68.1991C44.6464 68.1477 44.6233 68.0745 44.6233 67.9793V67.1652C44.6233 67.0044 44.6007 66.8813 44.5555 66.7958C44.5103 66.7103 44.4204 66.6681 44.2854 66.6681C44.1976 66.6681 44.1175 66.694 44.0451 66.7459C43.9727 66.7978 43.9199 66.8691 43.8865 66.9596C43.8624 67.0324 43.8505 67.1683 43.8505 67.3677V67.9793C43.8505 68.0785 43.8274 68.1523 43.7812 68.2022C43.735 68.252 43.675 68.2765 43.6015 68.2765C43.5307 68.2765 43.4722 68.251 43.4265 68.1996C43.3808 68.1482 43.3577 68.075 43.3577 67.9798V66.5684C43.3577 66.4752 43.3782 66.406 43.4193 66.3597C43.4603 66.3134 43.5163 66.2911 43.5872 66.2911C43.6303 66.2911 43.6698 66.3012 43.7047 66.3216C43.7397 66.3419 43.7674 66.3725 43.7884 66.4127C43.8095 66.4529 43.8203 66.5012 43.8203 66.5597Z" fill="white"/>
<path d="M45.5659 66.3323H45.6834V66.1858C45.6834 66.0331 45.7029 65.912 45.742 65.822C45.781 65.7319 45.8472 65.6663 45.9407 65.625C46.0341 65.5838 46.162 65.5635 46.3242 65.5635C46.6117 65.5635 46.7555 65.6332 46.7555 65.7726C46.7555 65.8179 46.7406 65.8566 46.7103 65.8891C46.68 65.9217 46.6446 65.9375 46.604 65.9375C46.5845 65.9375 46.5516 65.9339 46.5049 65.9268C46.4582 65.9197 46.4181 65.9161 46.3858 65.9161C46.297 65.9161 46.2395 65.942 46.2143 65.9939C46.1892 66.0458 46.1763 66.1201 46.1763 66.2168V66.3333H46.2975C46.4854 66.3333 46.5788 66.3893 46.5788 66.5012C46.5788 66.5811 46.5537 66.632 46.5039 66.6534C46.4541 66.6747 46.3853 66.6854 46.297 66.6854H46.1758V67.9788C46.1758 68.0755 46.1527 68.1493 46.1065 68.1997C46.0603 68.25 46.0002 68.2755 45.9268 68.2755C45.857 68.2755 45.799 68.25 45.7528 68.1997C45.7065 68.1493 45.6834 68.0755 45.6834 67.9788V66.6854H45.5479C45.4745 66.6854 45.418 66.6691 45.3785 66.6361C45.3389 66.603 45.3189 66.5608 45.3189 66.5084C45.3184 66.3908 45.4005 66.3323 45.5659 66.3323Z" fill="white"/>
<path d="M48.1633 67.4025H47.1996C47.2006 67.5134 47.2232 67.6111 47.2674 67.6961C47.3115 67.781 47.3695 67.8446 47.4424 67.8874C47.5153 67.9301 47.5954 67.952 47.6832 67.952C47.7423 67.952 47.7962 67.9454 47.845 67.9316C47.8937 67.9179 47.941 67.8965 47.9867 67.867C48.0324 67.8375 48.0745 67.8065 48.113 67.7729C48.1515 67.7393 48.2013 67.694 48.2629 67.637C48.288 67.6157 48.3245 67.605 48.3712 67.605C48.4215 67.605 48.4626 67.6187 48.4939 67.6462C48.5252 67.6737 48.5406 67.7123 48.5406 67.7627C48.5406 67.807 48.5232 67.8584 48.4883 67.9174C48.4534 67.9764 48.4005 68.0329 48.3301 68.0873C48.2598 68.1418 48.1715 68.1866 48.0647 68.2222C47.9579 68.2578 47.8357 68.2756 47.6976 68.2756C47.3813 68.2756 47.1349 68.186 46.9593 68.0075C46.7837 67.8289 46.6959 67.5856 46.6959 67.2793C46.6959 67.1348 46.7175 67.001 46.7611 66.8779C46.8048 66.7547 46.8674 66.6484 46.9506 66.5604C47.0338 66.4723 47.1359 66.4047 47.2576 66.3573C47.3793 66.31 47.5138 66.2866 47.6622 66.2866C47.8547 66.2866 48.02 66.3268 48.1576 66.4072C48.2952 66.4876 48.3984 66.5919 48.4672 66.7191C48.536 66.8463 48.5699 66.9766 48.5699 67.1089C48.5699 67.2315 48.5345 67.3114 48.4636 67.3475C48.3928 67.3836 48.2916 67.4025 48.1633 67.4025ZM47.1991 67.1252H48.0924C48.0806 66.9583 48.0349 66.8331 47.9564 66.7502C47.8778 66.6672 47.7736 66.626 47.6452 66.626C47.5225 66.626 47.4219 66.6682 47.3428 66.7522C47.2638 66.8361 47.216 66.9603 47.1991 67.1252Z" fill="white"/>
<path d="M50.7514 67.6706C50.7514 67.7317 50.7329 67.7963 50.6965 67.8655C50.66 67.9347 50.6041 68.0004 50.5286 68.0629C50.4531 68.1255 50.3587 68.1759 50.2442 68.2141C50.1297 68.2522 50.0013 68.2711 49.8581 68.2711C49.5536 68.2711 49.3159 68.183 49.1449 68.007C48.974 67.8309 48.8887 67.5953 48.8887 67.2997C48.8887 67.0992 48.9278 66.9222 49.0063 66.7685C49.0849 66.6149 49.1978 66.4958 49.3457 66.4118C49.4935 66.3279 49.6707 66.2856 49.8766 66.2856C50.0039 66.2856 50.1209 66.304 50.2277 66.3411C50.3345 66.3782 50.4244 66.4256 50.4983 66.4841C50.5722 66.5426 50.6287 66.6047 50.6677 66.6708C50.7068 66.737 50.7263 66.7985 50.7263 66.856C50.7263 66.9145 50.7042 66.9639 50.6606 67.0046C50.6169 67.0453 50.5635 67.0657 50.5009 67.0657C50.4598 67.0657 50.4259 67.055 50.3987 67.0341C50.3715 67.0133 50.3412 66.9797 50.3073 66.9329C50.2472 66.8423 50.1841 66.7741 50.1189 66.7288C50.0537 66.6835 49.97 66.6606 49.8689 66.6606C49.723 66.6606 49.606 66.7171 49.5166 66.8296C49.4273 66.942 49.3832 67.0962 49.3832 67.2921C49.3832 67.3837 49.3945 67.4681 49.4176 67.545C49.4407 67.6218 49.4735 67.6874 49.5166 67.7419C49.5598 67.7963 49.6121 67.8375 49.6738 67.8655C49.7354 67.8935 49.8026 67.9078 49.876 67.9078C49.9746 67.9078 50.0593 67.8849 50.1297 67.8396C50.2 67.7943 50.2621 67.7251 50.3166 67.632C50.3469 67.577 50.3792 67.5343 50.4141 67.5032C50.449 67.4722 50.4916 67.4569 50.5425 67.4569C50.6025 67.4569 50.6523 67.4798 50.6924 67.5251C50.7324 67.5704 50.7514 67.6193 50.7514 67.6706Z" fill="white"/>
<path d="M51.2079 66.3323H51.2618V66.0387C51.2618 65.9598 51.2639 65.8982 51.268 65.8535C51.2721 65.8087 51.2839 65.7705 51.3034 65.738C51.3229 65.7044 51.3501 65.6774 51.3866 65.6566C51.423 65.6357 51.4631 65.625 51.5077 65.625C51.5704 65.625 51.6268 65.6484 51.6772 65.6947C51.711 65.7258 51.7321 65.7634 51.7413 65.8082C51.7506 65.853 51.7547 65.9166 51.7547 65.9985V66.3312H51.9354C52.0052 66.3312 52.0586 66.3475 52.0951 66.3806C52.1315 66.4137 52.15 66.4554 52.15 66.5068C52.15 66.5724 52.1238 66.6182 52.0715 66.6447C52.0191 66.6711 51.9441 66.6839 51.8466 66.6839H51.7547V67.5819C51.7547 67.6582 51.7572 67.7168 51.7629 67.758C51.7685 67.7992 51.7829 67.8323 51.806 67.8582C51.8291 67.8842 51.8676 67.8969 51.9205 67.8969C51.9493 67.8969 51.9883 67.8918 52.0381 67.8816C52.0879 67.8714 52.1259 67.8664 52.1536 67.8664C52.1931 67.8664 52.2291 67.8821 52.2609 67.9137C52.2928 67.9452 52.3087 67.9844 52.3087 68.0307C52.3087 68.1096 52.2655 68.1696 52.1788 68.2113C52.092 68.2531 51.9678 68.2739 51.805 68.2739C51.651 68.2739 51.5344 68.2485 51.4548 68.1971C51.3753 68.1457 51.3234 68.075 51.2988 67.9844C51.2741 67.8938 51.2618 67.7727 51.2618 67.6211V66.6839H51.1966C51.1257 66.6839 51.0713 66.6671 51.0344 66.634C50.9974 66.6009 50.9784 66.5582 50.9784 66.5068C50.9784 66.4554 50.9979 66.4137 51.0369 66.3806C51.0759 66.3475 51.1334 66.3323 51.2079 66.3323Z" fill="white"/>
<path d="M52.7389 66.0623C52.6701 66.0623 52.6116 66.0414 52.5628 65.9997C52.514 65.9579 52.4899 65.8989 52.4899 65.8226C52.4899 65.7534 52.515 65.6964 52.5649 65.6516C52.6147 65.6069 52.6727 65.5845 52.7389 65.5845C52.8026 65.5845 52.859 65.6048 52.9083 65.6455C52.9576 65.6862 52.9823 65.7453 52.9823 65.8226C52.9823 65.8979 52.9581 65.9564 52.9099 65.9987C52.8616 66.0409 52.8051 66.0623 52.7389 66.0623ZM52.9823 66.567V67.9785C52.9823 68.0762 52.9586 68.1505 52.9119 68.2003C52.8652 68.2502 52.8056 68.2756 52.7333 68.2756C52.6609 68.2756 52.6023 68.2502 52.5572 68.1988C52.512 68.1474 52.4894 68.0741 52.4894 67.979V66.5818C52.4894 66.4851 52.512 66.4123 52.5572 66.3635C52.6023 66.3146 52.6609 66.2902 52.7333 66.2902C52.8056 66.2902 52.8652 66.3146 52.9119 66.3635C52.9586 66.4123 52.9823 66.48 52.9823 66.567Z" fill="white"/>
<path d="M55.3363 67.2823C55.3363 67.4278 55.3132 67.5622 55.2675 67.6848C55.2218 67.8074 55.1556 67.9132 55.0688 68.0013C54.982 68.0893 54.8788 68.157 54.7582 68.2043C54.6375 68.2516 54.5025 68.275 54.3521 68.275C54.2027 68.275 54.0687 68.2511 53.9495 68.2033C53.8304 68.1554 53.7272 68.0872 53.6399 67.9982C53.5527 67.9092 53.4864 67.8043 53.4412 67.6833C53.3961 67.5622 53.3735 67.4283 53.3735 67.2818C53.3735 67.1337 53.3966 66.9984 53.4423 66.8758C53.488 66.7531 53.5537 66.6478 53.6389 66.5608C53.7241 66.4738 53.8279 66.4066 53.9495 66.3593C54.0712 66.312 54.2052 66.2886 54.3521 66.2886C54.5015 66.2886 54.6365 66.3125 54.7582 66.3603C54.8799 66.4081 54.9836 66.4758 55.0703 66.5644C55.1571 66.6529 55.2228 66.7577 55.268 66.8793C55.3132 67.0009 55.3363 67.1358 55.3363 67.2823ZM54.8414 67.2823C54.8414 67.0834 54.7972 66.9282 54.7089 66.8172C54.6206 66.7063 54.5015 66.6509 54.3526 66.6509C54.256 66.6509 54.1713 66.6758 54.0979 66.7251C54.0245 66.7745 53.968 66.8478 53.9285 66.9444C53.889 67.0411 53.8689 67.1536 53.8689 67.2823C53.8689 67.41 53.8884 67.5214 53.9275 67.6166C53.9665 67.7117 54.0224 67.785 54.0953 67.8359C54.1683 67.8868 54.254 67.9117 54.3526 67.9117C54.502 67.9117 54.6206 67.8557 54.7089 67.7443C54.7972 67.6329 54.8414 67.4792 54.8414 67.2823Z" fill="white"/>
<path d="M56.1716 66.5597V66.6187C56.2584 66.5053 56.3529 66.4223 56.4561 66.3694C56.5593 66.3165 56.6774 66.29 56.8109 66.29C56.9407 66.29 57.0568 66.318 57.1595 66.374C57.2621 66.43 57.3381 66.5093 57.3885 66.6121C57.4208 66.6717 57.4418 66.7363 57.4516 66.8055C57.4614 66.8747 57.466 66.9627 57.466 67.0701V67.9788C57.466 68.0765 57.4434 68.1508 57.3982 68.2007C57.353 68.2505 57.2945 68.276 57.2221 68.276C57.1487 68.276 57.0891 68.2505 57.0434 68.1991C56.9977 68.1477 56.9746 68.0745 56.9746 67.9793V67.1652C56.9746 67.0044 56.952 66.8813 56.9069 66.7958C56.8617 66.7103 56.7718 66.6681 56.6368 66.6681C56.549 66.6681 56.4689 66.694 56.3965 66.7459C56.3241 66.7978 56.2712 66.8691 56.2379 66.9596C56.2137 67.0324 56.2019 67.1683 56.2019 67.3677V67.9793C56.2019 68.0785 56.1788 68.1523 56.1326 68.2022C56.0864 68.252 56.0263 68.2765 55.9529 68.2765C55.8821 68.2765 55.8235 68.251 55.7778 68.1996C55.7322 68.1482 55.709 68.075 55.709 67.9798V66.5684C55.709 66.4752 55.7296 66.406 55.7707 66.3597C55.8117 66.3134 55.8677 66.2911 55.9385 66.2911C55.9817 66.2911 56.0212 66.3012 56.0561 66.3216C56.091 66.3419 56.1188 66.3725 56.1398 66.4127C56.1609 66.4529 56.1716 66.5012 56.1716 66.5597Z" fill="white"/>
<path d="M59.3322 67.4025H58.3685C58.3696 67.5134 58.3922 67.6111 58.4363 67.6961C58.4805 67.781 58.5385 67.8446 58.6114 67.8874C58.6843 67.9301 58.7644 67.952 58.8522 67.952C58.9112 67.952 58.9651 67.9454 59.0139 67.9316C59.0627 67.9179 59.1099 67.8965 59.1556 67.867C59.2013 67.8375 59.2434 67.8065 59.2819 67.7729C59.3204 67.7393 59.3702 67.694 59.4318 67.637C59.457 67.6157 59.4934 67.605 59.5402 67.605C59.5905 67.605 59.6316 67.6187 59.6629 67.6462C59.6942 67.6737 59.7096 67.7123 59.7096 67.7627C59.7096 67.807 59.6921 67.8584 59.6572 67.9174C59.6223 67.9764 59.5694 68.0329 59.4991 68.0873C59.4288 68.1418 59.3404 68.1866 59.2337 68.2222C59.1269 68.2578 59.0047 68.2756 58.8666 68.2756C58.5503 68.2756 58.3038 68.186 58.1283 68.0075C57.9527 67.8289 57.8649 67.5856 57.8649 67.2793C57.8649 67.1348 57.8864 67.001 57.9301 66.8779C57.9737 66.7547 58.0364 66.6484 58.1195 66.5604C58.2027 66.4723 58.3049 66.4047 58.4266 66.3573C58.5482 66.31 58.6828 66.2866 58.8311 66.2866C59.0237 66.2866 59.189 66.3268 59.3266 66.4072C59.4642 66.4876 59.5674 66.5919 59.6362 66.7191C59.705 66.8463 59.7389 66.9766 59.7389 67.1089C59.7389 67.2315 59.7034 67.3114 59.6326 67.3475C59.5617 67.3836 59.4611 67.4025 59.3322 67.4025ZM58.3685 67.1252H59.2619C59.2501 66.9583 59.2044 66.8331 59.1258 66.7502C59.0473 66.6672 58.9431 66.626 58.8147 66.626C58.692 66.626 58.5914 66.6682 58.5123 66.7522C58.4332 66.8361 58.3855 66.9603 58.3685 67.1252Z" fill="white"/>
<path d="M60.643 67.5703V67.9783C60.643 68.0775 60.6194 68.1513 60.5727 68.2012C60.526 68.251 60.4664 68.2755 60.394 68.2755C60.3232 68.2755 60.2646 68.2505 60.2189 68.2002C60.1733 68.1498 60.1501 68.076 60.1501 67.9783V66.6188C60.1501 66.3995 60.2302 66.2896 60.3904 66.2896C60.4721 66.2896 60.5311 66.315 60.5676 66.3664C60.604 66.4178 60.6235 66.4936 60.6271 66.5933C60.6862 66.4931 60.7467 66.4173 60.8084 66.3664C60.87 66.3155 60.9531 66.2896 61.0563 66.2896C61.1595 66.2896 61.2602 66.315 61.3577 66.3664C61.4553 66.4178 61.504 66.4854 61.504 66.5704C61.504 66.63 61.4835 66.6793 61.4419 66.718C61.4003 66.7566 61.3557 66.776 61.3074 66.776C61.2894 66.776 61.2458 66.7648 61.1765 66.7429C61.1072 66.721 61.0461 66.7098 60.9932 66.7098C60.9208 66.7098 60.8623 66.7287 60.8161 66.7663C60.7699 66.804 60.7349 66.8594 60.7098 66.9337C60.6846 67.008 60.6672 67.0955 60.6574 67.1978C60.6477 67.3001 60.643 67.4237 60.643 67.5703Z" fill="white"/>
<path d="M62.2275 68.336L62.2726 68.2271L61.6663 66.7139C61.6288 66.6269 61.6103 66.5638 61.6103 66.5241C61.6103 66.4824 61.6211 66.4437 61.6427 66.4076C61.6642 66.3715 61.694 66.343 61.732 66.3216C61.77 66.3002 61.8095 66.2896 61.8501 66.2896C61.921 66.2896 61.9749 66.3119 62.0108 66.3567C62.0467 66.4015 62.0786 66.4656 62.1063 66.549L62.5232 67.7509L62.9185 66.633C62.9498 66.5424 62.9781 66.4712 63.0032 66.4203C63.0284 66.3694 63.0551 66.3343 63.0833 66.3165C63.1116 66.2987 63.1516 66.2896 63.2035 66.2896C63.241 66.2896 63.2764 66.2992 63.3108 66.3191C63.3452 66.3389 63.3714 66.3654 63.3904 66.3984C63.4094 66.4315 63.4181 66.4671 63.4181 66.5038C63.4135 66.5267 63.4053 66.5587 63.3945 66.6004C63.3837 66.6422 63.3703 66.6844 63.3549 66.7276L62.7121 68.395C62.6567 68.5416 62.6028 68.6566 62.5499 68.7405C62.497 68.8245 62.4267 68.8881 62.3394 68.9329C62.2521 68.9776 62.1345 69 61.9867 69C61.8424 69 61.7341 68.9848 61.6617 68.9537C61.5893 68.9227 61.5533 68.8662 61.5533 68.7838C61.5533 68.7278 61.5703 68.6846 61.6047 68.654C61.6391 68.6235 61.6899 68.6082 61.7572 68.6082C61.7839 68.6082 61.8095 68.6118 61.8347 68.6189C61.866 68.6261 61.8932 68.6296 61.9158 68.6296C61.9723 68.6296 62.017 68.6215 62.0493 68.6047C62.0817 68.5879 62.1109 68.5589 62.1371 68.5177C62.1633 68.4765 62.1941 68.4159 62.2275 68.336Z" fill="white"/>
<path d="M66.2871 67.6364C66.2871 67.7712 66.2542 67.8867 66.188 67.9824C66.1217 68.0781 66.0242 68.1513 65.8948 68.2007C65.7654 68.25 65.6083 68.275 65.423 68.275C65.2458 68.275 65.0944 68.248 64.9681 68.1946C64.8418 68.1411 64.7483 68.074 64.6883 67.9931C64.6282 67.9122 64.5979 67.8318 64.5979 67.7509C64.5979 67.6975 64.6174 67.6512 64.6554 67.613C64.6934 67.5748 64.7427 67.556 64.8017 67.556C64.8536 67.556 64.8931 67.5687 64.9208 67.5937C64.9486 67.6186 64.9748 67.6537 65.0004 67.699C65.0507 67.786 65.1113 67.8511 65.1817 67.8939C65.252 67.9366 65.348 67.9585 65.4697 67.9585C65.5683 67.9585 65.6494 67.9366 65.7125 67.8934C65.7757 67.8501 65.8075 67.8002 65.8075 67.7438C65.8075 67.6578 65.7747 67.5952 65.7089 67.556C65.6432 67.5168 65.5354 67.4792 65.385 67.4436C65.2156 67.4018 65.0774 67.3581 64.9706 67.3123C64.8639 67.2665 64.7791 67.2059 64.7155 67.1306C64.6518 67.0553 64.62 66.9632 64.62 66.8533C64.62 66.7556 64.6492 66.663 64.7083 66.576C64.7673 66.489 64.8541 66.4193 64.9691 66.3674C65.0841 66.3155 65.2227 66.2896 65.385 66.2896C65.5123 66.2896 65.6273 66.3028 65.729 66.3287C65.8306 66.3547 65.9153 66.3903 65.9836 66.4341C66.0519 66.4778 66.1033 66.5272 66.1387 66.5806C66.1741 66.634 66.1921 66.6869 66.1921 66.7378C66.1921 66.7938 66.1731 66.8396 66.1351 66.8757C66.0971 66.9118 66.0432 66.9291 65.9734 66.9291C65.923 66.9291 65.8799 66.9149 65.8445 66.8864C65.8091 66.8579 65.7685 66.8147 65.7228 66.7577C65.6853 66.7098 65.6417 66.6717 65.5909 66.6432C65.54 66.6147 65.4717 66.6004 65.385 66.6004C65.2962 66.6004 65.2217 66.6193 65.1632 66.6569C65.1046 66.6946 65.0749 66.7414 65.0749 66.7974C65.0749 66.8487 65.0964 66.8905 65.1401 66.9235C65.1837 66.9566 65.2417 66.9836 65.3152 67.005C65.3886 67.0263 65.4897 67.0528 65.6186 67.0838C65.7716 67.121 65.8963 67.1647 65.9929 67.2161C66.0894 67.2675 66.1633 67.3281 66.2131 67.3978C66.2629 67.4675 66.2871 67.5468 66.2871 67.6364Z" fill="white"/>
<path d="M68.4712 67.6706C68.4712 67.7317 68.4527 67.7963 68.4162 67.8655C68.3798 67.9347 68.3238 68.0004 68.2483 68.0629C68.1729 68.1255 68.0784 68.1759 67.9639 68.2141C67.8494 68.2522 67.721 68.2711 67.5778 68.2711C67.2733 68.2711 67.0356 68.183 66.8647 68.007C66.6937 67.8309 66.6085 67.5953 66.6085 67.2997C66.6085 67.0992 66.6475 66.9222 66.726 66.7685C66.8046 66.6149 66.9175 66.4958 67.0654 66.4118C67.2133 66.3279 67.3904 66.2856 67.5963 66.2856C67.7236 66.2856 67.8407 66.304 67.9475 66.3411C68.0543 66.3782 68.1441 66.4256 68.218 66.4841C68.292 66.5426 68.3484 66.6047 68.3875 66.6708C68.4265 66.737 68.446 66.7985 68.446 66.856C68.446 66.9145 68.4239 66.9639 68.3803 67.0046C68.3366 67.0453 68.2832 67.0657 68.2206 67.0657C68.1795 67.0657 68.1456 67.055 68.1184 67.0341C68.0912 67.0133 68.0609 66.9797 68.027 66.9329C67.967 66.8423 67.9038 66.7741 67.8386 66.7288C67.7734 66.6835 67.6897 66.6606 67.5886 66.6606C67.4428 66.6606 67.3257 66.7171 67.2364 66.8296C67.147 66.942 67.1029 67.0962 67.1029 67.2921C67.1029 67.3837 67.1142 67.4681 67.1373 67.545C67.1604 67.6218 67.1932 67.6874 67.2364 67.7419C67.2795 67.7963 67.3319 67.8375 67.3935 67.8655C67.4551 67.8935 67.5223 67.9078 67.5958 67.9078C67.6943 67.9078 67.7791 67.8849 67.8494 67.8396C67.9197 67.7943 67.9819 67.7251 68.0363 67.632C68.0666 67.577 68.0989 67.5343 68.1338 67.5032C68.1687 67.4722 68.2114 67.4569 68.2622 67.4569C68.3223 67.4569 68.3721 67.4798 68.4121 67.5251C68.4522 67.5704 68.4712 67.6193 68.4712 67.6706Z" fill="white"/>
<path d="M69.2906 65.8602V66.5847C69.3532 66.513 69.4143 66.4565 69.4739 66.4148C69.5334 66.373 69.5992 66.3415 69.6715 66.3206C69.7439 66.2998 69.8215 66.2891 69.9046 66.2891C70.0299 66.2891 70.1408 66.3156 70.2379 66.368C70.3349 66.4204 70.4109 66.4967 70.4663 66.5969C70.5012 66.6554 70.5249 66.7206 70.5367 66.7928C70.5485 66.8651 70.5546 66.948 70.5546 67.0422V67.9779C70.5546 68.0756 70.532 68.1499 70.4869 68.1997C70.4417 68.2496 70.3821 68.275 70.3072 68.275C70.1449 68.275 70.0633 68.1758 70.0633 67.9779V67.1531C70.0633 66.9969 70.0397 66.8768 69.993 66.7928C69.9462 66.7089 69.8569 66.6666 69.726 66.6666C69.6382 66.6666 69.5591 66.6916 69.4888 66.7409C69.4184 66.7903 69.3655 66.858 69.3306 66.9439C69.3039 67.0167 69.2911 67.1459 69.2911 67.3322V67.9779C69.2911 68.0745 69.269 68.1483 69.2254 68.1987C69.1817 68.2491 69.1206 68.2745 69.0421 68.2745C68.8799 68.2745 68.7982 68.1753 68.7982 67.9774V65.8597C68.7982 65.7604 68.8198 65.6867 68.8624 65.6368C68.905 65.5869 68.9651 65.5625 69.0421 65.5625C69.1201 65.5625 69.1812 65.5874 69.2254 65.6378C69.2695 65.6882 69.2906 65.7625 69.2906 65.8602Z" fill="white"/>
<path d="M72.8861 67.2823C72.8861 67.4278 72.863 67.5622 72.8173 67.6848C72.7716 67.8074 72.7054 67.9132 72.6186 68.0013C72.5318 68.0893 72.4286 68.157 72.308 68.2043C72.1873 68.2516 72.0523 68.275 71.9019 68.275C71.7525 68.275 71.6184 68.2511 71.4993 68.2033C71.3802 68.1554 71.277 68.0872 71.1897 67.9982C71.1025 67.9092 71.0362 67.8043 70.991 67.6833C70.9459 67.5622 70.9233 67.4283 70.9233 67.2818C70.9233 67.1337 70.9464 66.9984 70.9921 66.8758C71.0378 66.7531 71.1035 66.6478 71.1887 66.5608C71.2739 66.4738 71.3777 66.4066 71.4993 66.3593C71.621 66.312 71.755 66.2886 71.9019 66.2886C72.0513 66.2886 72.1863 66.3125 72.308 66.3603C72.4297 66.4081 72.5334 66.4758 72.6201 66.5644C72.7069 66.6529 72.7726 66.7577 72.8178 66.8793C72.863 67.0009 72.8861 67.1358 72.8861 67.2823ZM72.3917 67.2823C72.3917 67.0834 72.3475 66.9282 72.2592 66.8172C72.1709 66.7063 72.0518 66.6509 71.9029 66.6509C71.8064 66.6509 71.7216 66.6758 71.6482 66.7251C71.5748 66.7745 71.5183 66.8478 71.4788 66.9444C71.4393 67.0411 71.4192 67.1536 71.4192 67.2823C71.4192 67.41 71.4388 67.5214 71.4778 67.6166C71.5168 67.7117 71.5728 67.785 71.6457 67.8359C71.7186 67.8868 71.8043 67.9117 71.9029 67.9117C72.0523 67.9117 72.1709 67.8557 72.2592 67.7443C72.3475 67.6329 72.3917 67.4792 72.3917 67.2823Z" fill="white"/>
<path d="M75.1189 67.2823C75.1189 67.4278 75.0958 67.5622 75.0501 67.6848C75.0044 67.8074 74.9382 67.9132 74.8514 68.0013C74.7647 68.0893 74.6615 68.157 74.5408 68.2043C74.4202 68.2516 74.2851 68.275 74.1347 68.275C73.9853 68.275 73.8513 68.2511 73.7322 68.2033C73.6131 68.1554 73.5099 68.0872 73.4226 67.9982C73.3353 67.9092 73.2691 67.8043 73.2239 67.6833C73.1787 67.5622 73.1561 67.4283 73.1561 67.2818C73.1561 67.1337 73.1792 66.9984 73.2249 66.8758C73.2706 66.7531 73.3363 66.6478 73.4216 66.5608C73.5068 66.4738 73.6105 66.4066 73.7322 66.3593C73.8539 66.312 73.9879 66.2886 74.1347 66.2886C74.2841 66.2886 74.4191 66.3125 74.5408 66.3603C74.6625 66.4081 74.7662 66.4758 74.853 66.5644C74.9398 66.6529 75.0055 66.7577 75.0507 66.8793C75.0958 67.0009 75.1189 67.1358 75.1189 67.2823ZM74.6245 67.2823C74.6245 67.0834 74.5804 66.9282 74.4921 66.8172C74.4037 66.7063 74.2846 66.6509 74.1357 66.6509C74.0392 66.6509 73.9545 66.6758 73.8811 66.7251C73.8077 66.7745 73.7512 66.8478 73.7116 66.9444C73.6721 67.0411 73.6521 67.1536 73.6521 67.2823C73.6521 67.41 73.6716 67.5214 73.7106 67.6166C73.7496 67.7117 73.8056 67.785 73.8785 67.8359C73.9514 67.8868 74.0372 67.9117 74.1357 67.9117C74.2851 67.9117 74.4037 67.8557 74.4921 67.7443C74.5804 67.6329 74.6245 67.4792 74.6245 67.2823Z" fill="white"/>
<path d="M75.5071 67.9783V65.8606C75.5071 65.7629 75.5292 65.6886 75.5728 65.6388C75.6164 65.5889 75.676 65.5635 75.7504 65.5635C75.8249 65.5635 75.885 65.5884 75.9312 65.6378C75.9774 65.6871 76 65.7614 76 65.8606V67.9783C76 68.0776 75.9769 68.1513 75.9307 68.2012C75.8844 68.2511 75.8244 68.2755 75.751 68.2755C75.6786 68.2755 75.62 68.25 75.5748 68.1987C75.5297 68.1473 75.5071 68.0735 75.5071 67.9783Z" fill="white"/>
<path d="M59.2938 10.4807C60.5434 7.48779 60.9773 4.39824 60.9773 4.39824C61.2294 2.59803 61.236 1.0787 61.1898 0H41.6413C41.6341 0.585142 41.5361 4.00797 38.7035 6.56377C36.2653 8.76391 33.4209 8.86007 32.8279 8.86771C29.7926 8.90739 27.6963 7.38653 26.919 6.74084C23.8718 4.21099 23.6218 0.629919 23.5889 0H17.0197C17.0197 0 17.4468 15.403 32.6688 15.403C32.6688 15.403 41.7486 16.0909 46.8762 6.45743H53.6595C53.201 7.96913 52.3395 10.1876 50.6683 12.5047C50.2391 13.1001 48.5992 15.3058 45.7477 17.3513C42.6671 19.5611 39.5342 20.6067 36.2334 21.7083C35.2374 22.0405 34.515 22.241 34.3826 22.2899C15.5821 29.277 16.4898 48.491 16.4898 48.491H36.0383C36.0455 47.9059 36.1436 44.483 38.9761 41.9272C41.4144 39.7271 44.2587 39.6309 44.8517 39.6233C47.8871 39.5836 49.9834 41.1045 50.7607 41.7502C53.8079 44.28 54.0579 47.8611 54.0908 48.491H60.6605C60.6605 48.491 60.2333 33.088 45.0114 33.088C45.0114 33.088 35.9316 32.4001 30.804 42.0336H24.0207C24.5136 40.4919 25.3931 38.2943 27.0119 35.9863C27.723 34.9722 29.655 32.3945 33.0379 30.1241C35.6127 28.3962 36.7361 28.3835 41.2018 26.4316C45.2363 24.6681 47.2992 23.7659 49.6486 22.1377C49.6486 22.1382 56.416 17.3726 59.2938 10.4807Z" fill="white"/>
</svg>
