<svg width="76" height="69" viewBox="0 0 76 69" fill="none" xmlns="http://www.w3.org/2000/svg">
<path d="M11.0111 58.2186C9.62284 58.9269 3.45768 61.7351 3.45768 61.7351C3.45768 61.7351 5.65255 61.3931 7.55735 61.5397C9.42979 61.6862 9.17154 63.5175 9.17154 63.5175C7.07319 62.7115 2.5864 62.9802 1.35984 63.1023C0.16562 63.2244 -0.383228 62.565 0.294489 61.9299C0.972205 61.3194 9.55866 58.096 8.10619 58.1937C6.65373 58.267 4.10356 57.9739 4.10356 57.9739C3.81297 60.5134 0.746299 59.3416 0.746299 59.3416C2.68292 58.731 1.32749 56.4113 1.32749 56.4113C5.13657 57.3638 8.88095 56.509 9.6557 56.509C10.4305 56.509 12.0118 57.6818 11.0111 58.2186Z" fill="#323232"/>
<path d="M21.986 60.8075C20.7595 63.4935 17.4669 63.4936 17.4669 63.4936C16.2727 63.4936 15.9174 62.712 16.0468 62.3701C15.2397 62.712 14.2067 62.9807 13.1418 62.9807C10.5593 62.9807 10.2369 60.1236 12.0765 58.2435C14.0131 56.2658 16.8862 56.4123 18.4034 56.9003C19.0169 56.0699 20.8242 56.4362 21.793 56.7049C21.793 56.7049 18.1133 60.5877 18.1775 61.8083C18.2422 62.9807 20.1788 61.5885 20.6953 60.8314C21.0172 60.3434 21.986 60.8075 21.986 60.8075ZM15.885 61.3443C15.885 60.2208 17.0151 58.8048 17.7251 57.779C15.885 57.4859 14.6261 58.0965 13.7549 59.049C13.3354 59.5375 12.8831 60.5872 13.4643 61.4176C13.722 61.7839 14.755 61.8083 15.885 61.3443Z" fill="#323232"/>
<path d="M31.5403 57.4132C30.2814 58.4145 29.9584 59.8306 29.9584 59.8306C29.4096 60.026 27.2794 60.0504 26.9565 59.2444C26.7952 58.7315 27.2794 58.1698 27.2794 58.1698C27.2794 58.1698 25.3428 59.4154 24.5033 59.0246C23.3415 60.2946 22.4373 61.5397 22.5991 62.9807C22.5344 62.9807 22.502 62.9807 22.502 62.9807C20.533 62.9807 20.5007 61.7351 20.7913 60.8563C21.2755 59.3177 23.4062 56.7049 23.4062 56.7049C24.3421 56.0455 26.5375 56.2408 26.5375 56.2408C26.5375 56.2408 26.0857 57.1689 25.3756 57.9011C26.2151 57.9988 27.5705 57.4371 28.6359 56.7776C30.0878 55.8989 32.0891 56.9491 31.5403 57.4132Z" fill="#323232"/>
<path d="M41.6757 60.3923C40.4492 63.0784 37.1566 63.0784 37.1566 63.0784C35.9947 63.0784 35.5748 62.6632 35.4459 62.1258C34.0576 63.0784 32.3792 63.0784 32.3792 63.0784C30.4102 63.0784 30.6038 61.8572 30.6685 60.954C30.7655 60.0748 33.2834 56.8026 33.2834 56.8026C34.2517 56.1431 36.5436 56.8026 36.5436 56.8026C36.5436 56.8026 33.0251 60.1725 33.0898 61.3937C33.1545 62.566 35.0911 61.1738 35.6076 60.4167C35.64 60.3679 35.6723 60.3435 35.7046 60.319C36.35 59.0246 38.0613 56.8026 38.0613 56.8026C39.0296 56.1431 41.3215 56.8026 41.3215 56.8026C41.3215 56.8026 37.803 60.1725 37.8677 61.3937C37.9324 62.566 39.869 61.1738 40.3855 60.4167C40.7074 59.9283 41.6757 60.3923 41.6757 60.3923Z" fill="#323232"/>
<path d="M49.0675 61.2955C47.2597 63.1511 44.3548 63.1755 42.7729 62.7848C42.2241 62.9557 41.6434 63.0534 41.1587 62.9557C39.2544 62.6382 39.9968 60.2208 42.3853 57.4371C44.7742 54.6777 44.4836 52.6511 44.4836 52.6511C48.7769 52.7732 47.6792 54.5801 45.6778 56.9003C46.2914 56.7049 46.9691 56.5828 47.7115 56.5828C50.2622 56.5828 50.9076 59.4398 49.0675 61.2955ZM47.8409 57.9016C47.3891 57.3155 45.549 57.7062 44.3224 58.4389C43.9671 58.8541 43.5477 59.3915 43.2894 59.7334C43.6124 59.6601 43.903 59.7578 43.9348 59.7822C43.9995 59.8066 43.3859 60.2707 43.1924 60.6859C43.0953 60.9057 42.9018 61.7849 44.1283 61.8338C45.7102 61.9315 46.5173 61.0278 47.2597 60.2468C47.712 59.7573 48.2927 58.5117 47.8409 57.9016Z" fill="#323232"/>
<path d="M56.5886 60.0992C55.6849 62.8585 52.3924 63.0784 52.3924 63.0784C50.8105 63.176 50.294 62.1258 50.3587 61.0762C50.4234 60.1725 52.5859 56.7537 52.5859 56.7537C53.4254 56.021 55.8138 56.5339 55.8138 56.5339C55.8138 56.5339 52.7148 60.1236 52.9089 61.3443C53.1024 62.4922 54.8455 61.0024 55.2978 60.1964C55.5556 59.7084 56.5886 60.0992 56.5886 60.0992ZM53.296 54.7027C53.296 54.0921 53.9737 53.5792 54.7808 53.5792C55.6203 53.5792 56.298 54.0921 56.298 54.7027C56.298 55.3377 55.6203 55.8506 54.7808 55.8506C53.9742 55.8501 53.296 55.3372 53.296 54.7027Z" fill="#323232"/>
<path d="M66.2727 60.2946C65.0462 62.9807 61.7536 62.9807 61.7536 62.9807C58.2998 62.9318 60.7206 59.3909 61.5277 58.2435C60.0752 59.0495 56.9439 62.7853 56.7826 62.9807C56.718 62.9807 56.6856 62.9807 56.6856 62.9807C54.7166 62.9807 54.6843 61.7351 54.9749 60.8563C55.459 59.3177 57.5897 56.7049 57.5897 56.7049C58.5257 56.0455 60.85 56.7049 60.85 56.7049C60.85 56.7049 59.3652 57.926 58.1709 59.4642C62.4318 56.9247 62.0124 55.9478 65.918 56.7049C65.918 56.7049 62.3995 60.0748 62.4642 61.2954C62.5289 62.4678 64.4331 61.0756 64.9496 60.3185C65.2716 59.8306 66.2727 60.2946 66.2727 60.2946Z" fill="#323232"/>
<path d="M75.8917 60.8075C74.6651 63.4935 71.3725 63.4936 71.3725 63.4936C70.1783 63.4936 69.823 62.712 69.9524 62.3701C69.1453 62.712 68.1123 62.9807 67.0475 62.9807C64.465 62.9807 64.1425 60.1236 65.9821 58.2435C67.9188 56.2658 70.7919 56.4123 72.309 56.9003C72.9226 56.0699 74.7298 56.4362 75.6986 56.7049C75.6986 56.7049 72.0189 60.5877 72.0831 61.8083C72.1478 62.9807 74.0844 61.5885 74.6009 60.8314C74.9234 60.3434 75.8917 60.8075 75.8917 60.8075ZM69.7907 61.3443C69.7907 60.2208 70.9207 58.8048 71.6308 57.779C69.7907 57.4859 68.5318 58.0965 67.6605 59.049C67.241 59.5375 66.7887 60.5872 67.3699 61.4176C67.6276 61.7839 68.6606 61.8083 69.7907 61.3443Z" fill="#323232"/>
<path d="M40.7105 67.6705C40.7105 67.7315 40.692 67.7961 40.6556 67.8653C40.6191 67.9345 40.5631 68.0002 40.4877 68.0627C40.4122 68.1253 40.3177 68.1757 40.2032 68.2139C40.0887 68.252 39.9604 68.2709 39.8171 68.2709C39.5127 68.2709 39.275 68.1828 39.104 68.0068C38.933 67.8307 38.8478 67.5951 38.8478 67.2995C38.8478 67.099 38.8868 66.922 38.9654 66.7683C39.0439 66.6147 39.1569 66.4956 39.3047 66.4116C39.4526 66.3277 39.6297 66.2854 39.8356 66.2854C39.963 66.2854 40.08 66.3038 40.1868 66.3409C40.2936 66.378 40.3834 66.4254 40.4574 66.4839C40.5313 66.5424 40.5878 66.6045 40.6268 66.6706C40.6658 66.7368 40.6853 66.7983 40.6853 66.8558C40.6853 66.9143 40.6633 66.9637 40.6196 67.0044C40.576 67.0451 40.5226 67.0655 40.4599 67.0655C40.4189 67.0655 40.385 67.0548 40.3578 67.0339C40.3306 67.0131 40.3003 66.9795 40.2664 66.9327C40.2063 66.8421 40.1432 66.7739 40.078 66.7286C40.0128 66.6833 39.9291 66.6604 39.8279 66.6604C39.6821 66.6604 39.5651 66.7169 39.4757 66.8294C39.3864 66.9418 39.3422 67.096 39.3422 67.2919C39.3422 67.3835 39.3535 67.4679 39.3766 67.5448C39.3997 67.6216 39.4326 67.6872 39.4757 67.7417C39.5188 67.7961 39.5712 67.8373 39.6328 67.8653C39.6944 67.8933 39.7617 67.9076 39.8351 67.9076C39.9337 67.9076 40.0184 67.8847 40.0887 67.8394C40.1591 67.7941 40.2212 67.7249 40.2756 67.6318C40.3059 67.5768 40.3383 67.5341 40.3732 67.503C40.4081 67.472 40.4507 67.4567 40.5015 67.4567C40.5616 67.4567 40.6114 67.4796 40.6515 67.5249C40.6915 67.5702 40.7105 67.6191 40.7105 67.6705Z" fill="#323232"/>
<path d="M42.9844 67.2822C42.9844 67.4277 42.9613 67.5621 42.9156 67.6847C42.8699 67.8073 42.8037 67.9132 42.7169 68.0012C42.6302 68.0892 42.527 68.1569 42.4063 68.2042C42.2857 68.2515 42.1506 68.2749 42.0002 68.2749C41.8508 68.2749 41.7168 68.251 41.5977 68.2032C41.4786 68.1554 41.3754 68.0872 41.2881 67.9981C41.2008 67.9091 41.1346 67.8043 41.0894 67.6832C41.0442 67.5621 41.0216 67.4283 41.0216 67.2817C41.0216 67.1336 41.0447 66.9983 41.0904 66.8757C41.1361 66.7531 41.2018 66.6477 41.2871 66.5607C41.3723 66.4737 41.476 66.4065 41.5977 66.3592C41.7194 66.3119 41.8534 66.2885 42.0002 66.2885C42.1496 66.2885 42.2846 66.3124 42.4063 66.3602C42.528 66.4081 42.6317 66.4757 42.7185 66.5643C42.8053 66.6528 42.871 66.7576 42.9162 66.8792C42.9613 67.0008 42.9844 67.1357 42.9844 67.2822ZM42.49 67.2822C42.49 67.0833 42.4459 66.9281 42.3576 66.8172C42.2692 66.7062 42.1501 66.6508 42.0012 66.6508C41.9047 66.6508 41.82 66.6757 41.7466 66.7251C41.6732 66.7744 41.6167 66.8477 41.5771 66.9444C41.5376 67.041 41.5176 67.1535 41.5176 67.2822C41.5176 67.4099 41.5371 67.5214 41.5761 67.6165C41.6151 67.7117 41.6711 67.7849 41.744 67.8358C41.8169 67.8867 41.9027 67.9116 42.0012 67.9116C42.1506 67.9116 42.2692 67.8557 42.3576 67.7442C42.4459 67.6328 42.49 67.4791 42.49 67.2822Z" fill="#323232"/>
<path d="M43.8203 66.5597V66.6187C43.9071 66.5053 44.0015 66.4223 44.1047 66.3694C44.2079 66.3165 44.326 66.29 44.4595 66.29C44.5894 66.29 44.7054 66.318 44.8081 66.374C44.9108 66.43 44.9868 66.5093 45.0371 66.6121C45.0694 66.6716 45.0905 66.7363 45.1002 66.8055C45.11 66.8747 45.1146 66.9627 45.1146 67.07V67.9788C45.1146 68.0765 45.092 68.1508 45.0469 68.2006C45.0017 68.2505 44.9431 68.2759 44.8707 68.2759C44.7973 68.2759 44.7378 68.2505 44.6921 68.1991C44.6464 68.1477 44.6233 68.0745 44.6233 67.9793V67.1652C44.6233 67.0044 44.6007 66.8813 44.5555 66.7958C44.5103 66.7103 44.4205 66.6681 44.2854 66.6681C44.1977 66.6681 44.1176 66.694 44.0452 66.7459C43.9728 66.7978 43.9199 66.8691 43.8865 66.9596C43.8624 67.0324 43.8506 67.1682 43.8506 67.3677V67.9793C43.8506 68.0785 43.8275 68.1523 43.7813 68.2022C43.7351 68.252 43.675 68.2765 43.6016 68.2765C43.5307 68.2765 43.4722 68.251 43.4265 68.1996C43.3808 68.1482 43.3577 68.075 43.3577 67.9798V66.5683C43.3577 66.4752 43.3782 66.406 43.4193 66.3597C43.4604 66.3134 43.5163 66.291 43.5872 66.291C43.6303 66.291 43.6699 66.3012 43.7048 66.3216C43.7397 66.3419 43.7674 66.3725 43.7885 66.4127C43.8095 66.4528 43.8203 66.5012 43.8203 66.5597Z" fill="#323232"/>
<path d="M45.5659 66.3323H45.6835V66.1857C45.6835 66.0331 45.703 65.912 45.742 65.8219C45.781 65.7319 45.8473 65.6662 45.9407 65.625C46.0342 65.5838 46.162 65.5634 46.3242 65.5634C46.6118 65.5634 46.7555 65.6331 46.7555 65.7726C46.7555 65.8178 46.7406 65.8565 46.7103 65.8891C46.68 65.9216 46.6446 65.9374 46.6041 65.9374C46.5845 65.9374 46.5517 65.9339 46.505 65.9267C46.4583 65.9196 46.4182 65.916 46.3859 65.916C46.297 65.916 46.2395 65.942 46.2144 65.9939C46.1892 66.0458 46.1764 66.1201 46.1764 66.2168V66.3333H46.2975C46.4855 66.3333 46.5789 66.3892 46.5789 66.5012C46.5789 66.5811 46.5537 66.632 46.5039 66.6533C46.4541 66.6747 46.3853 66.6854 46.297 66.6854H46.1759V67.9788C46.1759 68.0755 46.1528 68.1493 46.1066 68.1996C46.0603 68.25 46.0003 68.2754 45.9269 68.2754C45.857 68.2754 45.799 68.25 45.7528 68.1996C45.7066 68.1493 45.6835 68.0755 45.6835 67.9788V66.6854H45.548C45.4745 66.6854 45.4181 66.6691 45.3785 66.636C45.339 66.603 45.319 66.5607 45.319 66.5083C45.3185 66.3908 45.4006 66.3323 45.5659 66.3323Z" fill="#323232"/>
<path d="M48.1633 67.4023H47.1996C47.2007 67.5132 47.2232 67.6109 47.2674 67.6959C47.3116 67.7809 47.3696 67.8445 47.4425 67.8872C47.5154 67.93 47.5955 67.9518 47.6833 67.9518C47.7423 67.9518 47.7962 67.9452 47.845 67.9315C47.8938 67.9177 47.941 67.8964 47.9867 67.8669C48.0324 67.8373 48.0745 67.8063 48.113 67.7727C48.1515 67.7391 48.2013 67.6939 48.2629 67.6369C48.2881 67.6155 48.3245 67.6048 48.3713 67.6048C48.4216 67.6048 48.4626 67.6186 48.494 67.646C48.5253 67.6735 48.5407 67.7122 48.5407 67.7625C48.5407 67.8068 48.5232 67.8582 48.4883 67.9172C48.4534 67.9763 48.4005 68.0327 48.3302 68.0872C48.2598 68.1416 48.1715 68.1864 48.0647 68.222C47.958 68.2576 47.8358 68.2754 47.6976 68.2754C47.3814 68.2754 47.1349 68.1859 46.9593 68.0073C46.7838 67.8287 46.696 67.5855 46.696 67.2792C46.696 67.1347 46.7175 67.0008 46.7612 66.8777C46.8048 66.7546 46.8674 66.6482 46.9506 66.5602C47.0338 66.4722 47.136 66.4045 47.2576 66.3572C47.3793 66.3099 47.5138 66.2865 47.6622 66.2865C47.8548 66.2865 48.0201 66.3267 48.1577 66.4071C48.2953 66.4874 48.3985 66.5918 48.4673 66.719C48.5361 66.8462 48.5699 66.9764 48.5699 67.1087C48.5699 67.2313 48.5345 67.3112 48.4637 67.3474C48.3928 67.3835 48.2917 67.4023 48.1633 67.4023ZM47.1991 67.125H48.0925C48.0807 66.9581 48.035 66.8329 47.9564 66.75C47.8779 66.6671 47.7736 66.6258 47.6453 66.6258C47.5226 66.6258 47.4219 66.6681 47.3429 66.752C47.2638 66.836 47.2161 66.9601 47.1991 67.125Z" fill="#323232"/>
<path d="M50.7515 67.6705C50.7515 67.7315 50.733 67.7961 50.6965 67.8653C50.6601 67.9345 50.6041 68.0002 50.5287 68.0627C50.4532 68.1253 50.3587 68.1757 50.2442 68.2139C50.1297 68.252 50.0014 68.2709 49.8581 68.2709C49.5537 68.2709 49.3159 68.1828 49.145 68.0068C48.974 67.8307 48.8888 67.5951 48.8888 67.2995C48.8888 67.099 48.9278 66.922 49.0064 66.7683C49.0849 66.6147 49.1979 66.4956 49.3457 66.4116C49.4936 66.3277 49.6707 66.2854 49.8766 66.2854C50.0039 66.2854 50.121 66.3038 50.2278 66.3409C50.3346 66.378 50.4244 66.4254 50.4984 66.4839C50.5723 66.5424 50.6288 66.6045 50.6678 66.6706C50.7068 66.7368 50.7263 66.7983 50.7263 66.8558C50.7263 66.9143 50.7042 66.9637 50.6606 67.0044C50.617 67.0451 50.5636 67.0655 50.5009 67.0655C50.4599 67.0655 50.426 67.0548 50.3988 67.0339C50.3715 67.0131 50.3413 66.9795 50.3074 66.9327C50.2473 66.8421 50.1841 66.7739 50.1189 66.7286C50.0537 66.6833 49.97 66.6604 49.8689 66.6604C49.7231 66.6604 49.606 66.7169 49.5167 66.8294C49.4274 66.9418 49.3832 67.096 49.3832 67.2919C49.3832 67.3835 49.3945 67.4679 49.4176 67.5448C49.4407 67.6216 49.4736 67.6872 49.5167 67.7417C49.5598 67.7961 49.6122 67.8373 49.6738 67.8653C49.7354 67.8933 49.8027 67.9076 49.8761 67.9076C49.9747 67.9076 50.0594 67.8847 50.1297 67.8394C50.2001 67.7941 50.2622 67.7249 50.3166 67.6318C50.3469 67.5768 50.3792 67.5341 50.4142 67.503C50.4491 67.472 50.4917 67.4567 50.5425 67.4567C50.6026 67.4567 50.6524 67.4796 50.6924 67.5249C50.7325 67.5702 50.7515 67.6191 50.7515 67.6705Z" fill="#323232"/>
<path d="M51.2079 66.3323H51.2618V66.0387C51.2618 65.9598 51.2639 65.8982 51.268 65.8535C51.2721 65.8087 51.2839 65.7705 51.3034 65.738C51.3229 65.7044 51.3501 65.6774 51.3866 65.6565C51.423 65.6357 51.4631 65.625 51.5077 65.625C51.5704 65.625 51.6269 65.6484 51.6772 65.6947C51.7111 65.7257 51.7321 65.7634 51.7414 65.8082C51.7506 65.853 51.7547 65.9166 51.7547 65.9985V66.3312H51.9354C52.0052 66.3312 52.0586 66.3475 52.0951 66.3806C52.1316 66.4137 52.15 66.4554 52.15 66.5068C52.15 66.5724 52.1238 66.6182 52.0715 66.6447C52.0191 66.6711 51.9441 66.6839 51.8466 66.6839H51.7547V67.5819C51.7547 67.6582 51.7573 67.7168 51.7629 67.758C51.7686 67.7992 51.7829 67.8323 51.806 67.8582C51.8291 67.8842 51.8677 67.8969 51.9205 67.8969C51.9493 67.8969 51.9883 67.8918 52.0381 67.8816C52.0879 67.8714 52.1259 67.8663 52.1536 67.8663C52.1932 67.8663 52.2291 67.8821 52.2609 67.9137C52.2928 67.9452 52.3087 67.9844 52.3087 68.0307C52.3087 68.1096 52.2656 68.1696 52.1788 68.2113C52.092 68.2531 51.9678 68.2739 51.805 68.2739C51.651 68.2739 51.5344 68.2485 51.4549 68.1971C51.3753 68.1457 51.3234 68.075 51.2988 67.9844C51.2741 67.8938 51.2618 67.7727 51.2618 67.6211V66.6839H51.1966C51.1258 66.6839 51.0713 66.6671 51.0344 66.634C50.9974 66.6009 50.9784 66.5582 50.9784 66.5068C50.9784 66.4554 50.9979 66.4137 51.0369 66.3806C51.076 66.3475 51.1335 66.3323 51.2079 66.3323Z" fill="#323232"/>
<path d="M52.7389 66.0621C52.6701 66.0621 52.6116 66.0412 52.5628 65.9995C52.5141 65.9578 52.4899 65.8987 52.4899 65.8224C52.4899 65.7532 52.5151 65.6962 52.5649 65.6515C52.6147 65.6067 52.6727 65.5843 52.7389 65.5843C52.8026 65.5843 52.8591 65.6046 52.9084 65.6453C52.9576 65.6861 52.9823 65.7451 52.9823 65.8224C52.9823 65.8977 52.9582 65.9562 52.9099 65.9985C52.8616 66.0407 52.8052 66.0621 52.7389 66.0621ZM52.9823 66.5668V67.9783C52.9823 68.076 52.9587 68.1503 52.912 68.2001C52.8652 68.25 52.8057 68.2754 52.7333 68.2754C52.6609 68.2754 52.6024 68.25 52.5572 68.1986C52.512 68.1472 52.4894 68.0739 52.4894 67.9788V66.5816C52.4894 66.4849 52.512 66.4121 52.5572 66.3633C52.6024 66.3144 52.6609 66.29 52.7333 66.29C52.8057 66.29 52.8652 66.3144 52.912 66.3633C52.9587 66.4121 52.9823 66.4798 52.9823 66.5668Z" fill="#323232"/>
<path d="M55.3363 67.2822C55.3363 67.4277 55.3132 67.5621 55.2675 67.6847C55.2218 67.8073 55.1556 67.9132 55.0688 68.0012C54.9821 68.0892 54.8789 68.1569 54.7582 68.2042C54.6376 68.2515 54.5025 68.2749 54.3521 68.2749C54.2027 68.2749 54.0687 68.251 53.9496 68.2032C53.8305 68.1554 53.7273 68.0872 53.64 67.9981C53.5527 67.9091 53.4865 67.8043 53.4413 67.6832C53.3961 67.5621 53.3735 67.4283 53.3735 67.2817C53.3735 67.1336 53.3966 66.9983 53.4423 66.8757C53.488 66.7531 53.5537 66.6477 53.639 66.5607C53.7242 66.4737 53.8279 66.4065 53.9496 66.3592C54.0713 66.3119 54.2053 66.2885 54.3521 66.2885C54.5015 66.2885 54.6365 66.3124 54.7582 66.3602C54.8799 66.4081 54.9836 66.4757 55.0704 66.5643C55.1571 66.6528 55.2229 66.7576 55.268 66.8792C55.3132 67.0008 55.3363 67.1357 55.3363 67.2822ZM54.8414 67.2822C54.8414 67.0833 54.7972 66.9281 54.7089 66.8172C54.6206 66.7062 54.5015 66.6508 54.3526 66.6508C54.2561 66.6508 54.1714 66.6757 54.098 66.7251C54.0245 66.7744 53.9681 66.8477 53.9285 66.9444C53.889 67.041 53.869 67.1535 53.869 67.2822C53.869 67.4099 53.8885 67.5214 53.9275 67.6165C53.9665 67.7117 54.0225 67.7849 54.0954 67.8358C54.1683 67.8867 54.254 67.9116 54.3526 67.9116C54.502 67.9116 54.6206 67.8557 54.7089 67.7442C54.7972 67.6328 54.8414 67.4791 54.8414 67.2822Z" fill="#323232"/>
<path d="M56.1717 66.5597V66.6187C56.2584 66.5053 56.3529 66.4223 56.4561 66.3694C56.5593 66.3165 56.6774 66.29 56.8109 66.29C56.9408 66.29 57.0568 66.318 57.1595 66.374C57.2622 66.43 57.3382 66.5093 57.3885 66.6121C57.4208 66.6716 57.4419 66.7363 57.4516 66.8055C57.4614 66.8747 57.466 66.9627 57.466 67.07V67.9788C57.466 68.0765 57.4434 68.1508 57.3982 68.2006C57.353 68.2505 57.2945 68.2759 57.2221 68.2759C57.1487 68.2759 57.0891 68.2505 57.0434 68.1991C56.9978 68.1477 56.9747 68.0745 56.9747 67.9793V67.1652C56.9747 67.0044 56.9521 66.8813 56.9069 66.7958C56.8617 66.7103 56.7719 66.6681 56.6368 66.6681C56.549 66.6681 56.4689 66.694 56.3965 66.7459C56.3241 66.7978 56.2713 66.8691 56.2379 66.9596C56.2138 67.0324 56.202 67.1682 56.202 67.3677V67.9793C56.202 68.0785 56.1788 68.1523 56.1326 68.2022C56.0864 68.252 56.0264 68.2765 55.9529 68.2765C55.8821 68.2765 55.8236 68.251 55.7779 68.1996C55.7322 68.1482 55.7091 68.075 55.7091 67.9798V66.5683C55.7091 66.4752 55.7296 66.406 55.7707 66.3597C55.8118 66.3134 55.8677 66.291 55.9386 66.291C55.9817 66.291 56.0212 66.3012 56.0561 66.3216C56.0911 66.3419 56.1188 66.3725 56.1398 66.4127C56.1609 66.4528 56.1717 66.5012 56.1717 66.5597Z" fill="#323232"/>
<path d="M59.3323 67.4023H58.3686C58.3696 67.5132 58.3922 67.6109 58.4364 67.6959C58.4805 67.7809 58.5385 67.8445 58.6114 67.8872C58.6843 67.93 58.7644 67.9518 58.8522 67.9518C58.9113 67.9518 58.9652 67.9452 59.014 67.9315C59.0627 67.9177 59.11 67.8964 59.1557 67.8669C59.2014 67.8373 59.2435 67.8063 59.282 67.7727C59.3205 67.7391 59.3703 67.6939 59.4319 67.6369C59.457 67.6155 59.4935 67.6048 59.5402 67.6048C59.5905 67.6048 59.6316 67.6186 59.6629 67.646C59.6942 67.6735 59.7097 67.7122 59.7097 67.7625C59.7097 67.8068 59.6922 67.8582 59.6573 67.9172C59.6224 67.9763 59.5695 68.0327 59.4991 68.0872C59.4288 68.1416 59.3405 68.1864 59.2337 68.222C59.1269 68.2576 59.0047 68.2754 58.8666 68.2754C58.5503 68.2754 58.3039 68.1859 58.1283 68.0073C57.9527 67.8287 57.8649 67.5855 57.8649 67.2792C57.8649 67.1347 57.8865 67.0008 57.9301 66.8777C57.9738 66.7546 58.0364 66.6482 58.1196 66.5602C58.2028 66.4722 58.3049 66.4045 58.4266 66.3572C58.5483 66.3099 58.6828 66.2865 58.8312 66.2865C59.0237 66.2865 59.189 66.3267 59.3266 66.4071C59.4642 66.4874 59.5674 66.5918 59.6362 66.719C59.705 66.8462 59.7389 66.9764 59.7389 67.1087C59.7389 67.2313 59.7035 67.3112 59.6326 67.3474C59.5618 67.3835 59.4612 67.4023 59.3323 67.4023ZM58.3686 67.125H59.2619C59.2501 66.9581 59.2044 66.8329 59.1259 66.75C59.0473 66.6671 58.9431 66.6258 58.8148 66.6258C58.692 66.6258 58.5914 66.6681 58.5124 66.752C58.4333 66.836 58.3855 66.9601 58.3686 67.125Z" fill="#323232"/>
<path d="M60.6431 67.5702V67.9783C60.6431 68.0775 60.6194 68.1513 60.5727 68.2011C60.526 68.251 60.4664 68.2754 60.394 68.2754C60.3232 68.2754 60.2647 68.2505 60.219 68.2001C60.1733 68.1498 60.1502 68.076 60.1502 67.9783V66.6187C60.1502 66.3994 60.2303 66.2895 60.3904 66.2895C60.4721 66.2895 60.5311 66.315 60.5676 66.3663C60.604 66.4177 60.6235 66.4935 60.6271 66.5933C60.6862 66.493 60.7468 66.4172 60.8084 66.3663C60.87 66.3155 60.9532 66.2895 61.0564 66.2895C61.1595 66.2895 61.2602 66.315 61.3577 66.3663C61.4553 66.4177 61.5041 66.4854 61.5041 66.5704C61.5041 66.6299 61.4835 66.6793 61.4419 66.7179C61.4003 66.7566 61.3557 66.7759 61.3074 66.7759C61.2894 66.7759 61.2458 66.7648 61.1765 66.7429C61.1072 66.721 61.0461 66.7098 60.9932 66.7098C60.9208 66.7098 60.8623 66.7286 60.8161 66.7663C60.7699 66.8039 60.7349 66.8594 60.7098 66.9337C60.6846 67.008 60.6672 67.0955 60.6574 67.1978C60.6477 67.3 60.6431 67.4237 60.6431 67.5702Z" fill="#323232"/>
<path d="M62.2275 68.336L62.2727 68.2271L61.6663 66.7139C61.6288 66.6269 61.6103 66.5638 61.6103 66.5241C61.6103 66.4824 61.6211 66.4437 61.6427 66.4076C61.6643 66.3714 61.694 66.3429 61.732 66.3216C61.77 66.3002 61.8096 66.2895 61.8501 66.2895C61.921 66.2895 61.9749 66.3119 62.0108 66.3567C62.0467 66.4015 62.0786 66.4656 62.1063 66.549L62.5232 67.7508L62.9185 66.633C62.9499 66.5424 62.9781 66.4712 63.0033 66.4203C63.0284 66.3694 63.0551 66.3343 63.0833 66.3165C63.1116 66.2987 63.1516 66.2895 63.2035 66.2895C63.241 66.2895 63.2764 66.2992 63.3108 66.319C63.3452 66.3389 63.3714 66.3653 63.3904 66.3984C63.4094 66.4315 63.4181 66.4671 63.4181 66.5037C63.4135 66.5266 63.4053 66.5587 63.3945 66.6004C63.3837 66.6421 63.3703 66.6844 63.3549 66.7276L62.7121 68.395C62.6567 68.5415 62.6028 68.6565 62.5499 68.7405C62.497 68.8245 62.4267 68.8881 62.3394 68.9328C62.2521 68.9776 62.1345 69 61.9867 69C61.8424 69 61.7341 68.9847 61.6617 68.9537C61.5893 68.9227 61.5534 68.8662 61.5534 68.7837C61.5534 68.7278 61.5703 68.6845 61.6047 68.654C61.6391 68.6235 61.6899 68.6082 61.7572 68.6082C61.7839 68.6082 61.8095 68.6118 61.8347 68.6189C61.866 68.626 61.8932 68.6296 61.9158 68.6296C61.9723 68.6296 62.017 68.6214 62.0493 68.6046C62.0817 68.5879 62.1109 68.5589 62.1371 68.5176C62.1633 68.4764 62.1941 68.4159 62.2275 68.336Z" fill="#323232"/>
<path d="M66.2871 67.6364C66.2871 67.7712 66.2542 67.8867 66.188 67.9824C66.1218 68.078 66.0242 68.1513 65.8948 68.2006C65.7655 68.25 65.6083 68.2749 65.423 68.2749C65.2459 68.2749 65.0944 68.248 64.9681 68.1945C64.8418 68.1411 64.7484 68.0739 64.6883 67.993C64.6282 67.9121 64.5979 67.8317 64.5979 67.7508C64.5979 67.6974 64.6174 67.6511 64.6554 67.613C64.6934 67.5748 64.7427 67.556 64.8018 67.556C64.8536 67.556 64.8932 67.5687 64.9209 67.5936C64.9486 67.6186 64.9748 67.6537 65.0005 67.6989C65.0508 67.786 65.1114 67.8511 65.1817 67.8938C65.252 67.9366 65.348 67.9584 65.4697 67.9584C65.5683 67.9584 65.6494 67.9366 65.7126 67.8933C65.7757 67.8501 65.8076 67.8002 65.8076 67.7437C65.8076 67.6577 65.7747 67.5951 65.709 67.556C65.6433 67.5168 65.5354 67.4791 65.385 67.4435C65.2156 67.4018 65.0775 67.358 64.9707 67.3122C64.8639 67.2664 64.7792 67.2059 64.7155 67.1306C64.6518 67.0553 64.62 66.9632 64.62 66.8533C64.62 66.7556 64.6493 66.663 64.7083 66.576C64.7674 66.489 64.8541 66.4193 64.9691 66.3674C65.0841 66.3155 65.2228 66.2895 65.385 66.2895C65.5123 66.2895 65.6273 66.3027 65.729 66.3287C65.8307 66.3546 65.9154 66.3903 65.9837 66.434C66.0519 66.4778 66.1033 66.5271 66.1387 66.5806C66.1741 66.634 66.1921 66.6869 66.1921 66.7378C66.1921 66.7938 66.1731 66.8395 66.1351 66.8757C66.0971 66.9118 66.0432 66.9291 65.9734 66.9291C65.9231 66.9291 65.8799 66.9149 65.8445 66.8864C65.8091 66.8579 65.7685 66.8146 65.7228 66.7576C65.6854 66.7098 65.6417 66.6716 65.5909 66.6431C65.5401 66.6146 65.4718 66.6004 65.385 66.6004C65.2962 66.6004 65.2217 66.6192 65.1632 66.6569C65.1047 66.6945 65.0749 66.7413 65.0749 66.7973C65.0749 66.8487 65.0965 66.8904 65.1401 66.9235C65.1837 66.9566 65.2418 66.9835 65.3152 67.0049C65.3886 67.0263 65.4897 67.0527 65.6186 67.0838C65.7716 67.1209 65.8964 67.1647 65.9929 67.2161C66.0894 67.2675 66.1634 67.328 66.2132 67.3977C66.263 67.4674 66.2871 67.5468 66.2871 67.6364Z" fill="#323232"/>
<path d="M68.4712 67.6705C68.4712 67.7315 68.4527 67.7961 68.4162 67.8653C68.3798 67.9345 68.3238 68.0002 68.2484 68.0627C68.1729 68.1253 68.0784 68.1757 67.9639 68.2139C67.8494 68.252 67.7211 68.2709 67.5778 68.2709C67.2734 68.2709 67.0357 68.1828 66.8647 68.0068C66.6937 67.8307 66.6085 67.5951 66.6085 67.2995C66.6085 67.099 66.6475 66.922 66.7261 66.7683C66.8046 66.6147 66.9176 66.4956 67.0654 66.4116C67.2133 66.3277 67.3904 66.2854 67.5963 66.2854C67.7236 66.2854 67.8407 66.3038 67.9475 66.3409C68.0543 66.378 68.1441 66.4254 68.2181 66.4839C68.292 66.5424 68.3485 66.6045 68.3875 66.6706C68.4265 66.7368 68.446 66.7983 68.446 66.8558C68.446 66.9143 68.4239 66.9637 68.3803 67.0044C68.3367 67.0451 68.2833 67.0655 68.2206 67.0655C68.1796 67.0655 68.1457 67.0548 68.1185 67.0339C68.0913 67.0131 68.061 66.9795 68.0271 66.9327C67.967 66.8421 67.9039 66.7739 67.8386 66.7286C67.7734 66.6833 67.6898 66.6604 67.5886 66.6604C67.4428 66.6604 67.3257 66.7169 67.2364 66.8294C67.1471 66.9418 67.1029 67.096 67.1029 67.2919C67.1029 67.3835 67.1142 67.4679 67.1373 67.5448C67.1604 67.6216 67.1933 67.6872 67.2364 67.7417C67.2795 67.7961 67.3319 67.8373 67.3935 67.8653C67.4551 67.8933 67.5224 67.9076 67.5958 67.9076C67.6944 67.9076 67.7791 67.8847 67.8494 67.8394C67.9198 67.7941 67.9819 67.7249 68.0363 67.6318C68.0666 67.5768 68.099 67.5341 68.1339 67.503C68.1688 67.472 68.2114 67.4567 68.2622 67.4567C68.3223 67.4567 68.3721 67.4796 68.4121 67.5249C68.4522 67.5702 68.4712 67.6191 68.4712 67.6705Z" fill="#323232"/>
<path d="M69.2906 65.8601V66.5846C69.3532 66.5129 69.4143 66.4564 69.4739 66.4147C69.5335 66.373 69.5992 66.3414 69.6716 66.3206C69.744 66.2997 69.8215 66.289 69.9047 66.289C70.0299 66.289 70.1408 66.3155 70.2379 66.3679C70.3349 66.4203 70.4109 66.4966 70.4663 66.5968C70.5013 66.6554 70.5249 66.7205 70.5367 66.7927C70.5485 66.865 70.5546 66.9479 70.5546 67.0421V67.9778C70.5546 68.0755 70.5321 68.1498 70.4869 68.1996C70.4417 68.2495 70.3821 68.2749 70.3072 68.2749C70.1449 68.2749 70.0633 68.1757 70.0633 67.9778V67.153C70.0633 66.9968 70.0397 66.8767 69.993 66.7927C69.9462 66.7088 69.8569 66.6666 69.726 66.6666C69.6382 66.6666 69.5591 66.6915 69.4888 66.7408C69.4184 66.7902 69.3656 66.8579 69.3307 66.9439C69.304 67.0166 69.2911 67.1459 69.2911 67.3321V67.9778C69.2911 68.0745 69.269 68.1482 69.2254 68.1986C69.1818 68.249 69.1207 68.2744 69.0421 68.2744C68.8799 68.2744 68.7982 68.1752 68.7982 67.9773V65.8596C68.7982 65.7603 68.8198 65.6866 68.8624 65.6367C68.905 65.5868 68.9651 65.5624 69.0421 65.5624C69.1202 65.5624 69.1812 65.5873 69.2254 65.6377C69.2696 65.6881 69.2906 65.7624 69.2906 65.8601Z" fill="#323232"/>
<path d="M72.8861 67.2822C72.8861 67.4277 72.863 67.5621 72.8173 67.6847C72.7716 67.8073 72.7054 67.9132 72.6186 68.0012C72.5318 68.0892 72.4286 68.1569 72.308 68.2042C72.1873 68.2515 72.0523 68.2749 71.9019 68.2749C71.7525 68.2749 71.6185 68.251 71.4993 68.2032C71.3802 68.1554 71.277 68.0872 71.1898 67.9981C71.1025 67.9091 71.0362 67.8043 70.9911 67.6832C70.9459 67.5621 70.9233 67.4283 70.9233 67.2817C70.9233 67.1336 70.9464 66.9983 70.9921 66.8757C71.0378 66.7531 71.1035 66.6477 71.1887 66.5607C71.274 66.4737 71.3777 66.4065 71.4993 66.3592C71.621 66.3119 71.755 66.2885 71.9019 66.2885C72.0513 66.2885 72.1863 66.3124 72.308 66.3602C72.4297 66.4081 72.5334 66.4757 72.6201 66.5643C72.7069 66.6528 72.7726 66.7576 72.8178 66.8792C72.863 67.0008 72.8861 67.1357 72.8861 67.2822ZM72.3917 67.2822C72.3917 67.0833 72.3475 66.9281 72.2592 66.8172C72.1709 66.7062 72.0518 66.6508 71.9029 66.6508C71.8064 66.6508 71.7217 66.6757 71.6482 66.7251C71.5748 66.7744 71.5183 66.8477 71.4788 66.9444C71.4393 67.041 71.4193 67.1535 71.4193 67.2822C71.4193 67.4099 71.4388 67.5214 71.4778 67.6165C71.5168 67.7117 71.5728 67.7849 71.6457 67.8358C71.7186 67.8867 71.8043 67.9116 71.9029 67.9116C72.0523 67.9116 72.1709 67.8557 72.2592 67.7442C72.3475 67.6328 72.3917 67.4791 72.3917 67.2822Z" fill="#323232"/>
<path d="M75.119 67.2822C75.119 67.4277 75.0959 67.5621 75.0502 67.6847C75.0045 67.8073 74.9382 67.9132 74.8515 68.0012C74.7647 68.0892 74.6615 68.1569 74.5409 68.2042C74.4202 68.2515 74.2852 68.2749 74.1347 68.2749C73.9853 68.2749 73.8513 68.251 73.7322 68.2032C73.6131 68.1554 73.5099 68.0872 73.4226 67.9981C73.3353 67.9091 73.2691 67.8043 73.2239 67.6832C73.1787 67.5621 73.1562 67.4283 73.1562 67.2817C73.1562 67.1336 73.1793 66.9983 73.225 66.8757C73.2706 66.7531 73.3364 66.6477 73.4216 66.5607C73.5068 66.4737 73.6105 66.4065 73.7322 66.3592C73.8539 66.3119 73.9879 66.2885 74.1347 66.2885C74.2841 66.2885 74.4192 66.3124 74.5409 66.3602C74.6625 66.4081 74.7662 66.4757 74.853 66.5643C74.9398 66.6528 75.0055 66.7576 75.0507 66.8792C75.0959 67.0008 75.119 67.1357 75.119 67.2822ZM74.6245 67.2822C74.6245 67.0833 74.5804 66.9281 74.4921 66.8172C74.4038 66.7062 74.2847 66.6508 74.1358 66.6508C74.0392 66.6508 73.9545 66.6757 73.8811 66.7251C73.8077 66.7744 73.7512 66.8477 73.7117 66.9444C73.6721 67.041 73.6521 67.1535 73.6521 67.2822C73.6521 67.4099 73.6716 67.5214 73.7106 67.6165C73.7497 67.7117 73.8056 67.7849 73.8785 67.8358C73.9514 67.8867 74.0372 67.9116 74.1358 67.9116C74.2852 67.9116 74.4038 67.8557 74.4921 67.7442C74.5804 67.6328 74.6245 67.4791 74.6245 67.2822Z" fill="#323232"/>
<path d="M75.5071 67.9783V65.8606C75.5071 65.7629 75.5292 65.6886 75.5728 65.6387C75.6165 65.5889 75.676 65.5634 75.7505 65.5634C75.8249 65.5634 75.885 65.5884 75.9312 65.6377C75.9774 65.6871 76 65.7614 76 65.8606V67.9783C76 68.0775 75.9769 68.1513 75.9307 68.2011C75.8845 68.251 75.8244 68.2754 75.751 68.2754C75.6786 68.2754 75.6201 68.25 75.5749 68.1986C75.5297 68.1472 75.5071 68.0734 75.5071 67.9783Z" fill="#323232"/>
<path d="M59.2938 10.4807C60.5434 7.48779 60.9773 4.39824 60.9773 4.39824C61.2294 2.59803 61.236 1.0787 61.1898 0H41.6413C41.6341 0.585142 41.5361 4.00797 38.7035 6.56377C36.2653 8.76391 33.4209 8.86007 32.8279 8.86771C29.7926 8.90739 27.6963 7.38653 26.919 6.74084C23.8718 4.21099 23.6218 0.629919 23.5889 0H17.0197C17.0197 0 17.4469 15.403 32.6688 15.403C32.6688 15.403 41.7486 16.0909 46.8762 6.45743H53.6595C53.201 7.96913 52.3395 10.1876 50.6683 12.5047C50.2391 13.1001 48.5992 15.3058 45.7477 17.3513C42.6671 19.5611 39.5342 20.6067 36.2335 21.7083C35.2374 22.0405 34.515 22.241 34.3826 22.2899C15.5821 29.277 16.4898 48.491 16.4898 48.491H36.0384C36.0455 47.9059 36.1436 44.483 38.9762 41.9272C41.4144 39.7271 44.2587 39.6309 44.8517 39.6233C47.8871 39.5836 49.9834 41.1045 50.7607 41.7502C53.8079 44.28 54.0579 47.8611 54.0908 48.491H60.6605C60.6605 48.491 60.2333 33.088 45.0114 33.088C45.0114 33.088 35.9316 32.4001 30.804 42.0336H24.0207C24.5136 40.4919 25.3931 38.2943 27.0119 35.9863C27.723 34.9722 29.655 32.3945 33.0379 30.1241C35.6127 28.3962 36.7361 28.3835 41.2018 26.4316C45.2363 24.6681 47.2992 23.7659 49.6486 22.1377C49.6486 22.1382 56.416 17.3726 59.2938 10.4807Z" fill="#323232"/>
</svg>
